<svg width="24" height="24" viewBox="0 0 24 24" fill="none" xmlns="http://www.w3.org/2000/svg">
<g clip-path="url(#clip0_1197_1226)">
<path d="M9.101 23.6939V15.7139H6.627V12.0469H9.101V10.4669C9.101 6.38188 10.949 4.48887 14.959 4.48887C15.36 4.48887 15.914 4.53088 16.427 4.59188C16.8112 4.63141 17.1924 4.69656 17.568 4.78687V8.11188C17.3509 8.09162 17.133 8.07961 16.915 8.07588C16.6707 8.06953 16.4264 8.06653 16.182 8.06688C15.475 8.06688 14.923 8.16288 14.507 8.37588C14.2273 8.51619 13.9922 8.73155 13.828 8.99788C13.57 9.41788 13.454 9.99288 13.454 10.7499V12.0469H17.373L16.987 14.1499L16.7 15.7139H13.454V23.9589C19.396 23.2409 24 18.1819 24 12.0469C24 5.41988 18.627 0.046875 12 0.046875C5.373 0.046875 0 5.41988 0 12.0469C0 17.6749 3.874 22.3969 9.101 23.6939Z" fill="white"/>
</g>
<defs>
<clipPath id="clip0_1197_1226">
<rect width="24" height="24" fill="white"/>
</clipPath>
</defs>
</svg>
