<svg width="24" height="24" viewBox="0 0 24 24" fill="none" xmlns="http://www.w3.org/2000/svg">
<path d="M23.498 6.18787C23.3624 5.67715 23.095 5.21101 22.7226 4.83614C22.3502 4.46127 21.8858 4.19082 21.376 4.05188C19.505 3.54688 12 3.54688 12 3.54688C12 3.54688 4.495 3.54688 2.623 4.05188C2.11341 4.19106 1.64929 4.46161 1.27708 4.83646C0.904861 5.21131 0.637591 5.67731 0.502 6.18787C0 8.07187 0 12.0019 0 12.0019C0 12.0019 0 15.9319 0.502 17.8159C0.637586 18.3266 0.904975 18.7927 1.27739 19.1676C1.64981 19.5425 2.11418 19.8129 2.624 19.9519C4.495 20.4569 12 20.4569 12 20.4569C12 20.4569 19.505 20.4569 21.377 19.9519C21.8869 19.813 22.3513 19.5426 22.7237 19.1677C23.0961 18.7928 23.3635 18.3266 23.499 17.8159C24 15.9319 24 12.0019 24 12.0019C24 12.0019 24 8.07187 23.498 6.18787ZM9.545 15.5699V8.43388L15.818 12.0019L9.545 15.5699Z" fill="white"/>
</svg>
